# xmcd
#
# Track frame offsets:
#	150
#	24688
#	54613
#	72688
#	90850
#	110560
#	136885
#	154448
#	172723
#	190888
#
# Disc length: 2863 seconds
#
# Revision: 4
# Processed by: cddbd v1.5.2PL0 Copyright (c) Steve Scherf et al.
# Submitted via: audiograbber 1.83.01
#
DISCID=850b2d0a
DTITLE=Various Artist - Classic R&B Oldies From The 80's - Volume 3
DYEAR=1994
DGENRE=Oldies
TTITLE0=One Way - Cutie Pie
TTITLE1=Stephanie Mills - I Have Learned To Respect The Power Of Love
TTITLE2=New Edition - Mr. Telephone Man
TTITLE3=Ready For The World - Oh Sheila
TTITLE4=Patti LaBelle - Oh, People
TTITLE5=Aretha Franklin - Freeway Of Love
TTITLE6=Bobby Womack - I Wish He Didn't Trust Me So Much
TTITLE7=Rufus and Chaka Khan - Sharing The Love
TTITLE8=Marvin Gaye - Sexual Healing
TTITLE9=Gladys Knight and The Pips - Love Overboard
EXTD=
EXTT0=
EXTT1=
EXTT2=
EXTT3=
EXTT4=
EXTT5=
EXTT6=
EXTT7=
EXTT8=
EXTT9=
PLAYORDER=
